<?xml version="1.0" encoding="utf-8"?>
<!-- Generator: Adobe Illustrator 27.5.0, SVG Export Plug-In . SVG Version: 6.00 Build 0)  -->
<svg version="1.1" xmlns="http://www.w3.org/2000/svg" xmlns:xlink="http://www.w3.org/1999/xlink" x="0px" y="0px"
	 viewBox="0 0 500 500" xml:space="preserve">
<g id="OBJECTS">
	
		<linearGradient id="SVGID_00000044172681979582688120000001019794249790151357_" gradientUnits="userSpaceOnUse" x1="240.0573" y1="208.5262" x2="8.3739" y2="356.0907">
		<stop  offset="0" style="stop-color:#F9A8D4"/>
		<stop  offset="0.4021" style="stop-color:#EC4899"/>
		<stop  offset="1" style="stop-color:#DB2777"/>
	</linearGradient>
	<path style="fill:url(#SVGID_00000044172681979582688120000001019794249790151357_);" d="M243.628,188.676v27.574
		c0,30.463-24.699,55.161-55.161,55.161c-15.231,0-29.018-6.171-39.011-16.164c-3.138-3.138-5.896-6.644-8.193-10.452
		c25.289,7.97,47.204,1.221,56.343-2.521c1.326-0.473,2.626-1.05,3.86-1.733c0.105-0.053,0.197-0.105,0.276-0.144
		c0.092-0.039,0.171-0.092,0.236-0.118c0.105-0.066,0.171-0.092,0.171-0.092c2.14-1.208,4.097-2.718,5.817-4.438
		c4.99-4.99,8.075-11.883,8.075-19.499h-27.574c0-7.616,3.086-14.509,8.075-19.499c4.99-4.99,11.883-8.075,19.499-8.075H243.628z"/>
	
		<linearGradient id="SVGID_00000051381142017660835030000012350847338526696085_" gradientUnits="userSpaceOnUse" x1="282.0404" y1="261.5009" x2="464.5358" y2="99.6789">
		<stop  offset="0" style="stop-color:#8B5CF6"/>
		<stop  offset="0.4639" style="stop-color:#7C3AED"/>
		<stop  offset="1" style="stop-color:#6D28D9"/>
	</linearGradient>
	<path style="fill:url(#SVGID_00000051381142017660835030000012350847338526696085_);" d="M368.381,216.25v0.013
		c0,30.45-24.699,55.148-55.148,55.148c-15.231,0-29.018-6.171-39.011-16.15c-7.826-7.839-13.314-18.002-15.31-29.373
		c19.906,29.294,46.653,23.556,61.622,16.952c0.013,0,0.026-0.013,0.039-0.013c4.281-1.169,8.141-3.348,11.305-6.276
		c0.039-0.026,0.053-0.039,0.053-0.039c5.462-5.029,8.876-12.251,8.876-20.26H368.381z"/>
	
		<linearGradient id="SVGID_00000060722542195879596220000009575671648980181408_" gradientUnits="userSpaceOnUse" x1="199.7288" y1="154.3699" x2="136.2832" y2="252.7462">
		<stop  offset="0" style="stop-color:#F9A8D4"/>
		<stop  offset="0.4021" style="stop-color:#EC4899"/>
		<stop  offset="1" style="stop-color:#DB2777"/>
	</linearGradient>
	<path style="fill:url(#SVGID_00000060722542195879596220000009575671648980181408_);" d="M188.466,243.824
		c3.204,0,6.276-0.551,9.139-1.549c-9.139,3.742-31.054,10.491-56.343,2.521c-2.14-3.519-3.887-7.301-5.2-11.279
		c-1.786-5.423-2.757-11.24-2.757-17.267v-27.101c0-30.725,24.909-55.634,55.634-55.634h51.866
		c-49.108,3.729-69.237,23.031-76.433,46.338c-2.232,4.491-3.479,9.546-3.479,14.903v8.863c-0.026,1.563-0.026,3.112,0,4.661v7.97
		c0,4.674,1.169,9.073,3.217,12.934C168.744,237.889,177.909,243.824,188.466,243.824z"/>
	
		<linearGradient id="SVGID_00000062165374429899416250000004694937341680536232_" gradientUnits="userSpaceOnUse" x1="269.0335" y1="133.5144" x2="269.0335" y2="133.5144">
		<stop  offset="0" style="stop-color:#F9A8D4"/>
		<stop  offset="0.4021" style="stop-color:#EC4899"/>
		<stop  offset="1" style="stop-color:#DB2777"/>
	</linearGradient>
	<path style="fill:url(#SVGID_00000062165374429899416250000004694937341680536232_);" d="M269.033,133.514"/>
	
		<linearGradient id="SVGID_00000079483421389473210950000014916584007587718824_" gradientUnits="userSpaceOnUse" x1="229.6419" y1="175.5161" x2="229.6419" y2="175.5161">
		<stop  offset="0" style="stop-color:#F9A8D4"/>
		<stop  offset="0.4021" style="stop-color:#EC4899"/>
		<stop  offset="1" style="stop-color:#DB2777"/>
	</linearGradient>
	<path style="fill:url(#SVGID_00000079483421389473210950000014916584007587718824_);" d="M229.642,175.516"/>
	
		<linearGradient id="SVGID_00000021114186088921767650000005427200304665818512_" gradientUnits="userSpaceOnUse" x1="347.8339" y1="199.9974" x2="160.7057" y2="113.3838">
		<stop  offset="0" style="stop-color:#8B5CF6"/>
		<stop  offset="0.9948" style="stop-color:#EC4899"/>
	</linearGradient>
	<path style="fill:url(#SVGID_00000021114186088921767650000005427200304665818512_);" d="M368.381,133.514
		c0,7.616-3.086,14.509-8.075,19.499c-4.99,4.99-11.883,8.075-19.499,8.075h-55.161v55.161c0,15.231,12.343,27.574,27.574,27.574
		h0.013c2.521,0,4.977-0.341,7.301-0.985c-14.969,6.605-41.716,12.343-61.622-16.952c0,0,0,0,0-0.013
		c-0.551-3.125-0.84-6.329-0.84-9.612v-55.174h-63.512c-13.236,0-24.699,7.642-30.187,18.764
		c7.196-23.307,27.325-42.609,76.433-46.338H368.381z"/>
</g>
</svg>
